<mxfile host="65bd71144e" modified="2020-10-31T12:25:00.934Z" agent="5.0 (Macintosh; Intel Mac OS X 10_15_6) AppleWebKit/537.36 (KHTML, like Gecko) Code/1.50.1 Chrome/83.0.4103.122 Electron/9.2.1 Safari/537.36" etag="wyGsWXrPR5RoxLhzp-5B" version="13.6.5" pages="2">
    <diagram id="yX_yqX8jdpuUeVe9zCYm" name="ページ1">
        <mxGraphModel dx="528" dy="332" grid="1" gridSize="10" guides="1" tooltips="1" connect="1" arrows="1" fold="1" page="1" pageScale="1" pageWidth="827" pageHeight="1169" math="0" shadow="0">
            <root>
                <mxCell id="0"/>
                <mxCell id="1" parent="0"/>
                <mxCell id="iT-gyRg1ZKcaArUr5mcv-81" value="users" style="swimlane;fontStyle=0;childLayout=stackLayout;horizontal=1;startSize=26;fillColor=none;horizontalStack=0;resizeParent=1;resizeParentMax=0;resizeLast=0;collapsible=1;marginBottom=0;rounded=0;shadow=1;sketch=0;" parent="1" vertex="1">
                    <mxGeometry x="140" y="440" width="190" height="160" as="geometry"/>
                </mxCell>
                <mxCell id="iT-gyRg1ZKcaArUr5mcv-82" value=" name (string型,null false)" style="text;strokeColor=none;fillColor=none;align=left;verticalAlign=top;spacingLeft=4;spacingRight=4;overflow=hidden;rotatable=0;points=[[0,0.5],[1,0.5]];portConstraint=eastwest;" parent="iT-gyRg1ZKcaArUr5mcv-81" vertex="1">
                    <mxGeometry y="26" width="190" height="26" as="geometry"/>
                </mxCell>
                <mxCell id="iT-gyRg1ZKcaArUr5mcv-83" value="&#10; password (string型, null false)&#10;&#10; email  (string型,  null false)&#10;" style="text;strokeColor=none;fillColor=none;align=left;verticalAlign=top;spacingLeft=4;spacingRight=4;overflow=hidden;rotatable=0;points=[[0,0.5],[1,0.5]];portConstraint=eastwest;" parent="iT-gyRg1ZKcaArUr5mcv-81" vertex="1">
                    <mxGeometry y="52" width="190" height="108" as="geometry"/>
                </mxCell>
                <mxCell id="iT-gyRg1ZKcaArUr5mcv-94" value="" style="edgeStyle=entityRelationEdgeStyle;fontSize=12;html=1;endArrow=ERoneToMany;entryX=0;entryY=0.403;entryDx=0;entryDy=0;entryPerimeter=0;strokeWidth=4;" parent="1" target="iT-gyRg1ZKcaArUr5mcv-87" edge="1">
                    <mxGeometry width="100" height="100" relative="1" as="geometry">
                        <mxPoint x="330" y="520" as="sourcePoint"/>
                        <mxPoint x="430" y="420" as="targetPoint"/>
                    </mxGeometry>
                </mxCell>
                <mxCell id="iT-gyRg1ZKcaArUr5mcv-85" value="questions" style="swimlane;fontStyle=0;childLayout=stackLayout;horizontal=1;startSize=26;fillColor=none;horizontalStack=0;resizeParent=1;resizeParentMax=0;resizeLast=0;collapsible=1;marginBottom=0;rounded=0;shadow=1;sketch=0;" parent="1" vertex="1">
                    <mxGeometry x="610" y="440" width="190" height="160" as="geometry"/>
                </mxCell>
                <mxCell id="iT-gyRg1ZKcaArUr5mcv-87" value="user (reference型,null false)&#10;&#10;title  (string型 ,null false)&#10;&#10;text  (text型, null false)" style="text;strokeColor=none;fillColor=none;align=left;verticalAlign=top;spacingLeft=4;spacingRight=4;overflow=hidden;rotatable=0;points=[[0,0.5],[1,0.5]];portConstraint=eastwest;" parent="iT-gyRg1ZKcaArUr5mcv-85" vertex="1">
                    <mxGeometry y="26" width="190" height="134" as="geometry"/>
                </mxCell>
                <mxCell id="iT-gyRg1ZKcaArUr5mcv-89" value="answers" style="swimlane;fontStyle=0;childLayout=stackLayout;horizontal=1;startSize=26;fillColor=none;horizontalStack=0;resizeParent=1;resizeParentMax=0;resizeLast=0;collapsible=1;marginBottom=0;rounded=0;shadow=1;sketch=0;" parent="1" vertex="1">
                    <mxGeometry x="605" y="740" width="195" height="114" as="geometry"/>
                </mxCell>
                <mxCell id="iT-gyRg1ZKcaArUr5mcv-91" value="text (text型, null false)" style="text;strokeColor=none;fillColor=none;align=left;verticalAlign=top;spacingLeft=4;spacingRight=4;overflow=hidden;rotatable=0;points=[[0,0.5],[1,0.5]];portConstraint=eastwest;" parent="iT-gyRg1ZKcaArUr5mcv-89" vertex="1">
                    <mxGeometry y="26" width="195" height="26" as="geometry"/>
                </mxCell>
                <mxCell id="iT-gyRg1ZKcaArUr5mcv-92" value="user (reference型,null false)&#10;&#10;questions (reference型, null false)" style="text;strokeColor=none;fillColor=none;align=left;verticalAlign=top;spacingLeft=4;spacingRight=4;overflow=hidden;rotatable=0;points=[[0,0.5],[1,0.5]];portConstraint=eastwest;" parent="iT-gyRg1ZKcaArUr5mcv-89" vertex="1">
                    <mxGeometry y="52" width="195" height="62" as="geometry"/>
                </mxCell>
                <mxCell id="iT-gyRg1ZKcaArUr5mcv-96" value="" style="fontSize=12;html=1;endArrow=ERoneToMany;strokeWidth=4;exitX=0.56;exitY=1.021;exitDx=0;exitDy=0;exitPerimeter=0;entryX=0.567;entryY=-0.026;entryDx=0;entryDy=0;entryPerimeter=0;" parent="1" source="iT-gyRg1ZKcaArUr5mcv-87" target="iT-gyRg1ZKcaArUr5mcv-89" edge="1">
                    <mxGeometry width="100" height="100" relative="1" as="geometry">
                        <mxPoint x="470" y="730" as="sourcePoint"/>
                        <mxPoint x="570" y="630" as="targetPoint"/>
                    </mxGeometry>
                </mxCell>
                <mxCell id="iT-gyRg1ZKcaArUr5mcv-97" value="" style="fontSize=12;html=1;endArrow=ERoneToMany;strokeWidth=4;entryX=-0.015;entryY=0.39;entryDx=0;entryDy=0;entryPerimeter=0;exitX=0.538;exitY=1.019;exitDx=0;exitDy=0;exitPerimeter=0;" parent="1" source="iT-gyRg1ZKcaArUr5mcv-83" target="iT-gyRg1ZKcaArUr5mcv-92" edge="1">
                    <mxGeometry width="100" height="100" relative="1" as="geometry">
                        <mxPoint x="240" y="630" as="sourcePoint"/>
                        <mxPoint x="390" y="560" as="targetPoint"/>
                    </mxGeometry>
                </mxCell>
            </root>
        </mxGraphModel>
    </diagram>
    <diagram id="U3gqhd7wp2hUfZpXkR6p" name="ページ2">
        &#xa;
        <mxGraphModel dx="620" dy="526" grid="1" gridSize="10" guides="1" tooltips="1" connect="1" arrows="1" fold="1" page="1" pageScale="1" pageWidth="827" pageHeight="1169" math="0" shadow="0">
            &#xa;
            <root>
                &#xa;
                <mxCell id="XN_JLHMMr3tYMTC_3-U5-0"/>
                &#xa;
                <mxCell id="XN_JLHMMr3tYMTC_3-U5-1" parent="XN_JLHMMr3tYMTC_3-U5-0"/>
                &#xa;
            </root>
            &#xa;
        </mxGraphModel>
        &#xa;
    </diagram>
</mxfile>